<svg width="25" height="25" viewBox="0 0 25 25" fill="none" xmlns="http://www.w3.org/2000/svg">
    <g clip-path="url(#clip0)">
        <path d="M21.0938 17.1875C20.2322 17.1875 19.5312 16.4866 19.5312 15.625V10.1562C19.5312 8.27354 18.7967 6.50474 17.463 5.17568C16.6408 4.35635 15.6521 3.76562 14.5736 3.43437C14.7458 3.1084 14.8438 2.7374 14.8438 2.34375C14.8438 1.05142 13.7923 0 12.5 0C11.2077 0 10.1562 1.05142 10.1562 2.34375C10.1562 2.73965 10.2553 3.11274 10.4293 3.44009C7.56094 4.33604 5.46875 7.0415 5.46875 10.2241V15.625C5.46875 16.4866 4.76782 17.1875 3.90625 17.1875C3.4748 17.1875 3.125 17.5373 3.125 17.9688V21.0938C3.125 21.5252 3.4748 21.875 3.90625 21.875H9.7937C9.77544 22.0034 9.76562 22.1337 9.76562 22.2656C9.76562 23.7733 10.9923 25 12.5 25C14.0077 25 15.2344 23.7733 15.2344 22.2656C15.2344 22.1337 15.2246 22.0034 15.2063 21.875H21.0938C21.5252 21.875 21.875 21.5252 21.875 21.0938V17.9688C21.875 17.5373 21.5252 17.1875 21.0938 17.1875V17.1875ZM12.5 1.5625C12.9308 1.5625 13.2812 1.91299 13.2812 2.34375C13.2812 2.77451 12.9308 3.125 12.5 3.125C12.0692 3.125 11.7188 2.77451 11.7188 2.34375C11.7188 1.91299 12.0692 1.5625 12.5 1.5625ZM13.6719 22.2656C13.6719 22.9118 13.1462 23.4375 12.5 23.4375C11.8538 23.4375 11.3281 22.9118 11.3281 22.2656C11.3281 22.1306 11.3507 21.9991 11.3946 21.875H13.6054C13.6493 21.9991 13.6719 22.1306 13.6719 22.2656ZM20.3125 20.3125H14.0625H10.9375H4.6875V18.6511C6.03384 18.3034 7.03125 17.0785 7.03125 15.625V10.2241C7.03125 7.18179 9.47568 4.6981 12.4803 4.68755C12.487 4.68755 12.4935 4.6875 12.5001 4.6875C13.9573 4.6875 15.3275 5.25347 16.3601 6.28247C17.3975 7.31616 17.9688 8.69194 17.9688 10.1562V15.625C17.9688 17.0785 18.9662 18.3034 20.3125 18.6511V20.3125Z" fill="#00AF7C"/>
        <path d="M9.375 10.9375C8.94355 10.9375 8.59375 10.5877 8.59375 10.1562C8.59375 8.00234 10.3461 6.25 12.5 6.25C12.9314 6.25 13.2812 6.5998 13.2812 7.03125C13.2812 7.4627 12.9314 7.8125 12.5 7.8125C11.2077 7.8125 10.1562 8.86392 10.1562 10.1562C10.1562 10.5877 9.80645 10.9375 9.375 10.9375Z" fill="#00AF7C"/>
    </g>
    <defs>
        <clipPath id="clip0">
            <rect width="25" height="25" fill="white"/>
        </clipPath>
    </defs>
</svg>
