<svg version="1.1" fill="#333" xmlns="http://www.w3.org/2000/svg" xmlns:xlink="http://www.w3.org/1999/xlink" x="0px" y="0px" viewBox="0 0 1000 1000" enable-background="new 0 0 1000 1000" xml:space="preserve">
<g><path d="M767.1,641.7c27,0,48.8-21.9,48.8-48.8c0-15.6-7.3-29.4-18.6-38.3l0.3-0.3c-37.6-29.1-79.4-52.9-124.5-70.2c57.4-49.3,94-122.2,94-203.9c0-148.3-120.3-268.6-268.6-268.6c-148.3,0-268.6,120.3-268.6,268.6c0,81.6,36.5,154.6,94,203.9C140.5,554.3,10.1,731.5,10,939.6v0.1c0.1,26.9,21.9,48.7,48.8,48.7c27,0,48.7-21.8,48.8-48.7c0-215.5,175.3-390.7,390.7-390.7c88.3,0,169.6,29.8,235.1,79.4C742.3,636.6,754.1,641.7,767.1,641.7z M498.4,451.1c-94.3,0-170.9-76.7-170.9-171c0-94.3,76.7-170.9,170.9-170.9c94.3,0,170.9,76.7,170.9,170.9C669.4,374.4,592.7,451.1,498.4,451.1z"/><path d="M953.4,805.4h-73.3v-73.3c0-20.2-16.4-36.6-36.6-36.6c-20.3,0-36.6,16.4-36.6,36.6v73.3h-73.3c-20.3,0-36.6,16.4-36.6,36.6c0,20.2,16.4,36.6,36.6,36.6h73.3v73.3c0,20.2,16.4,36.6,36.6,36.6c20.2,0,36.6-16.4,36.6-36.6v-73.3h73.3c20.2,0,36.6-16.4,36.6-36.6S973.6,805.4,953.4,805.4z"/></g>
</svg>
