<svg width="25" height="25" viewBox="0 0 25 25" fill="none" xmlns="http://www.w3.org/2000/svg">
	<path d="M12.5 0C5.60781 0 0 5.60781 0 12.5C0 14.9031 0.673438 17.2109 1.95 19.2L0.05625 23.9281C-0.059375 24.2188 0.00781249 24.55 0.229687 24.7719C0.378125 24.9203 0.578125 25 0.78125 25C0.879688 25 0.976562 24.9812 1.07187 24.9437L5.8 23.05C7.78906 24.3266 10.0969 25 12.5 25C19.3922 25 25 19.3922 25 12.5C25 5.60781 19.3922 0 12.5 0ZM12.5 23.4375C10.2719 23.4375 8.13906 22.7781 6.33437 21.5297C6.20312 21.4375 6.04687 21.3906 5.89062 21.3906C5.79219 21.3906 5.69375 21.4094 5.6 21.4469L2.18438 22.8156L3.55312 19.4C3.65 19.1563 3.61875 18.8797 3.47031 18.6656C2.22187 16.8609 1.5625 14.7281 1.5625 12.5C1.5625 6.46875 6.46875 1.5625 12.5 1.5625C18.5312 1.5625 23.4375 6.46875 23.4375 12.5C23.4375 18.5312 18.5312 23.4375 12.5 23.4375Z" fill="#ffffff"/>
	<path d="M13.2812 14.0625H7.03125C6.6 14.0625 6.25 14.4125 6.25 14.8438C6.25 15.275 6.6 15.625 7.03125 15.625H13.2812C13.7125 15.625 14.0625 15.275 14.0625 14.8438C14.0625 14.4125 13.7125 14.0625 13.2812 14.0625Z" fill="#ffffff"/>
	<path d="M17.9688 9.375H7.03125C6.6 9.375 6.25 9.725 6.25 10.1562C6.25 10.5875 6.6 10.9375 7.03125 10.9375H17.9688C18.4 10.9375 18.75 10.5875 18.75 10.1562C18.75 9.725 18.4 9.375 17.9688 9.375Z" fill="#ffffff"/>
</svg>
