<?xml version="1.0" encoding="utf-8"?>
<!-- Svg Vector Icons : http://www.onlinewebfonts.com/icon -->
<!DOCTYPE svg PUBLIC "-//W3C//DTD SVG 1.1//EN" "http://www.w3.org/Graphics/SVG/1.1/DTD/svg11.dtd">
<svg version="1.1" xmlns="http://www.w3.org/2000/svg" xmlns:xlink="http://www.w3.org/1999/xlink" x="0px" y="0px" viewBox="0 0 1000 1000" enable-background="new 0 0 1000 1000" xml:space="preserve">
<metadata> Svg Vector Icons : http://www.onlinewebfonts.com/icon </metadata>
<g><g transform="translate(0.000000,512.000000) scale(0.100000,-0.100000)"><path d="M2052.8,5003.9c-350.5-68.9-670.3-406-731.5-767.9c-76.6-461.5,291.1-953.7,773.7-1034.1c461.5-76.6,949.9,285.4,1032.2,767.9C3228.6,4565.4,2650.3,5122.6,2052.8,5003.9z M2516.2,4653.4c203-99.6,319.8-298.7,319.8-547.7c0-250.9-116.8-448.1-321.7-549.6c-95.8-47.9-130.2-53.6-291.1-53.6c-151.3,0-197.2,7.6-271.9,44c-193.4,95.8-317.9,285.4-335.1,509.4c-23,285.3,136,538.1,396.4,632C2146.6,4735.8,2380.3,4720.5,2516.2,4653.4z"/><path d="M7585.3,5003.9c-344.7-67-664.5-398.3-731.5-762.2c-86.2-459.6,287.3-959.4,777.5-1039.9c566.8-93.8,1124.1,463.4,1030.3,1030.3C8577.3,4739.6,8077.5,5099.6,7585.3,5003.9z M8035.3,4661.1c118.8-57.5,220.2-158.9,279.6-279.6c38.3-78.5,46-122.5,46-275.8c0-208.7-40.2-317.9-162.8-440.4c-122.6-122.6-231.7-162.8-440.5-162.8c-153.2,0-197.2,7.6-275.8,46c-197.2,97.7-316,275.8-333.2,499.8c-21.1,306.4,122.5,541.9,388.7,637.7C7673.4,4733.9,7907,4722.4,8035.3,4661.1z"/><path d="M1390.2,2853.3C944,2751.8,599.3,2432,449.9,1980.1c-32.5-97.7-36.4-212.6-42.1-1516.7L402-949.9h308.3h306.4v-1915v-1915H1170h153.2v2068.2v2068.2h-306.4H710.3V568.7c0,1319.5,3.8,1353.9,111.1,1553.1c67,124.5,218.3,275.8,340.9,340.9c193.4,105.3,256.6,111.1,1053.3,111.1c413.6,0,775.6-7.7,833-19.1c147.5-28.7,354.3-132.1,471.1-237.5c68.9-63.2,339-436.6,913.5-1275.4C4881.3,390.6,5249-151.4,5249-159c0-9.6-55.5-72.8-124.5-139.8L5000-423.3l-800.5,798.6c-438.5,438.5-817.7,802.4-842.6,810.1c-61.3,17.2-147.5-21.1-174.3-78.5c-15.3-34.5-21.1-838.8-21.1-2966.4V-4780h153.2H3468v2723.2V668.3l723.9-722c461.5-461.5,741.1-725.8,773.7-733.4c26.8-7.7,70.8-1.9,95.8,9.6c23,13.4,365.8,342.8,758.3,733.4L6532,668.3v-2725.1V-4780h153.2h153.2v2920.4c0,2127.6-5.7,2931.9-21.1,2966.4c-26.8,57.4-113,95.8-174.3,78.5c-24.9-7.7-294.9-264.3-603.2-570.7C5731.6,308.3,5476.9,61.2,5473,67c-5.8,3.8-65.1,91.9-136,193.4L5208.7,448l561.1,856c620.4,947.9,714.3,1064.7,934.5,1168.2c68.9,32.5,170.4,68.9,226,80.4c137.9,28.7,1516.7,28.7,1654.6,0c325.6-68.9,587.9-325.6,676-658.8c24.9-95.8,28.7-298.8,28.7-1325.2V-643.5h-306.4h-306.4v-2068.2V-4780h153.2h153.2v1915v1915h306.4H9598l-5.7,1413.3l-5.8,1411.4l-51.7,139.8c-74.7,203-159,339-312.2,492.2s-289.2,239.4-492.1,312.1l-139.8,51.7l-752.6,5.8c-825.4,7.7-936.5-1.9-1168.2-91.9c-350.5-137.9-429-226-1026.5-1129.9c-275.8-415.6-526.6-798.6-559.2-848.4l-59.4-91.9l-578.3,842.6c-641.5,934.5-718.1,1022.6-988.2,1164.3c-279.6,145.5-285.3,145.5-1168.2,151.3C1683.2,2876.3,1478.3,2872.5,1390.2,2853.3z"/><path d="M7604.4,2114.1v-153.2h153.2h153.2v153.2v153.2h-153.2h-153.2V2114.1z"/><path d="M7604.4,1501.3v-153.2h153.2h153.2v153.2v153.2h-153.2h-153.2V1501.3z"/><path d="M2089.2-3018.2V-4780h153.2h153.2v1761.8v1761.8h-153.2h-153.2V-3018.2z"/><path d="M7604.4-3018.2V-4780h153.2h153.2v1761.8v1761.8h-153.2h-153.2V-3018.2z"/></g></g>
</svg>
