<?xml version="1.0" encoding="iso-8859-1"?>
<!-- Generator: Adobe Illustrator 19.0.0, SVG Export Plug-In . SVG Version: 6.00 Build 0)  -->
<svg version="1.1" id="Capa_1" xmlns="http://www.w3.org/2000/svg" xmlns:xlink="http://www.w3.org/1999/xlink" x="0px" y="0px"
	 viewBox="0 0 507.015 507.015" style="enable-background:new 0 0 507.015 507.015;" xml:space="preserve">
<g>
	<path fill="#2fd3ae" d="M2.914,489.532V64.105c0-9.616,7.867-17.483,17.483-17.483h61.191c9.616,0,17.483,7.867,17.483,17.483
		s-7.867,17.483-17.483,17.483H37.88v390.46h431.254V81.589h-37.88c-9.616,0-17.483-7.867-17.483-17.483s7.867-17.483,17.483-17.483
		h55.364c9.616,0,17.483,7.867,17.483,17.483v425.426c0,9.616-7.867,17.483-17.483,17.483H20.397
		C10.781,507.015,2.914,499.147,2.914,489.532z M294.302,64.105c0-9.616-7.867-17.483-17.483-17.483h-49.536
		c-9.616,0-17.483,7.867-17.483,17.483s7.867,17.483,17.483,17.483h49.536C286.434,81.589,294.302,73.721,294.302,64.105z
		 M125.297,367.149H96.158c-9.616,0-17.483,7.867-17.483,17.483v29.139c0,9.616,7.867,17.483,17.483,17.483h29.139
		c9.616,0,17.483-7.867,17.483-17.483v-29.139C142.78,375.016,134.913,367.149,125.297,367.149z M189.402,431.254h32.053
		c9.616,0,17.483-7.867,17.483-17.483v-29.139c0-9.616-7.867-17.483-17.483-17.483h-32.053c-9.616,0-17.483,7.867-17.483,17.483
		v29.139C171.919,423.387,179.786,431.254,189.402,431.254z M285.56,431.254h29.139c9.616,0,17.483-7.867,17.483-17.483v-29.139
		c0-9.616-7.867-17.483-17.483-17.483H285.56c-9.616,0-17.483,7.867-17.483,17.483v29.139
		C268.077,423.387,275.944,431.254,285.56,431.254z M142.78,291.388c0-9.616-7.867-17.483-17.483-17.483H96.158
		c-9.616,0-17.483,7.867-17.483,17.483v29.139c0,9.616,7.867,17.483,17.483,17.483h29.139c9.616,0,17.483-7.867,17.483-17.483
		V291.388z M238.938,291.388c0-9.616-7.867-17.483-17.483-17.483h-32.053c-9.616,0-17.483,7.867-17.483,17.483v29.139
		c0,9.616,7.867,17.483,17.483,17.483h32.053c9.616,0,17.483-7.867,17.483-17.483V291.388z M332.182,291.388
		c0-9.616-7.867-17.483-17.483-17.483H285.56c-9.616,0-17.483,7.867-17.483,17.483v29.139c0,9.616,7.867,17.483,17.483,17.483
		h29.139c9.616,0,17.483-7.867,17.483-17.483V291.388z M381.718,338.01h29.139c9.616,0,17.483-7.867,17.483-17.483v-29.139
		c0-9.616-7.867-17.483-17.483-17.483h-29.139c-9.616,0-17.483,7.867-17.483,17.483v29.139
		C364.235,330.142,372.102,338.01,381.718,338.01z M238.938,198.144c0-9.616-7.867-17.483-17.483-17.483h-32.053
		c-9.616,0-17.483,7.867-17.483,17.483v29.139c0,9.616,7.867,17.483,17.483,17.483h32.053c9.616,0,17.483-7.867,17.483-17.483
		V198.144z M160.263,116.555c9.616,0,17.483-7.867,17.483-17.483V17.483C177.747,7.867,169.879,0,160.263,0H142.78
		c-9.616,0-17.483,7.867-17.483,17.483v81.589c0,9.616,7.867,17.483,17.483,17.483H160.263z M361.321,116.555
		c9.616,0,17.483-7.867,17.483-17.483V17.483C378.804,7.867,370.937,0,361.321,0h-17.483c-9.616,0-17.483,7.867-17.483,17.483
		v81.589c0,9.616,7.867,17.483,17.483,17.483H361.321z M332.182,198.144c0-9.616-7.867-17.483-17.483-17.483H285.56
		c-9.616,0-17.483,7.867-17.483,17.483v29.139c0,9.616,7.867,17.483,17.483,17.483h29.139c9.616,0,17.483-7.867,17.483-17.483
		V198.144z M428.34,198.144c0-9.616-7.867-17.483-17.483-17.483h-29.139c-9.616,0-17.483,7.867-17.483,17.483v29.139
		c0,9.616,7.867,17.483,17.483,17.483h29.139c9.616,0,17.483-7.867,17.483-17.483V198.144z"/>
</g>
</svg>
